<svg width="296" height="417" viewBox="0 0 296 417" fill="none" xmlns="http://www.w3.org/2000/svg">
<ellipse opacity="0.05" cx="148" cy="247.502" rx="148" ry="148.502" fill="#22282D" fill-opacity="0.5"/>
<rect opacity="0.5" x="150" y="79" width="338" height="3.99999" rx="1.99999" transform="rotate(90 150 79)" fill="white"/>
<rect x="150" width="249" height="3.99999" rx="2" transform="rotate(90 150 0)" fill="white"/>
<path d="M148 255C144.134 255 141 251.866 141 248C141 244.134 144.134 241 148 241C151.866 241 155 244.134 155 248C155 251.866 151.866 255 148 255Z" fill="#22282D" stroke="#F0F0F0" stroke-width="2"/>
<path d="M111.75 232.25C112.678 232.25 113.568 232.619 114.225 233.275C114.881 233.932 115.25 234.822 115.25 235.75V263.75L103 258.5L90.75 263.75V235.75C90.75 233.807 92.325 232.25 94.25 232.25H111.75ZM103 239.25C102.034 239.25 101.25 240.034 101.25 241V242.75H99.5C98.5335 242.75 97.75 243.534 97.75 244.5C97.75 245.466 98.5335 246.25 99.5 246.25H101.25V248C101.25 248.966 102.034 249.75 103 249.75C103.966 249.75 104.75 248.966 104.75 248V246.25H106.5C107.466 246.25 108.25 245.466 108.25 244.5C108.25 243.534 107.466 242.75 106.5 242.75H104.75V241C104.75 240.034 103.966 239.25 103 239.25Z" fill="white"/>
<path d="M186.62 255.24C185.047 255.24 183.833 254.873 182.98 254.14C182.127 253.393 181.7 252.387 181.7 251.12V250.96H183.48V251.18C183.48 252.02 183.74 252.667 184.26 253.12C184.78 253.56 185.513 253.78 186.46 253.78C187.433 253.78 188.193 253.567 188.74 253.14C189.3 252.713 189.58 252.067 189.58 251.2C189.58 250.307 189.28 249.68 188.68 249.32C188.093 248.947 187.327 248.76 186.38 248.76H184.94V247.3H186.44C187.24 247.3 187.913 247.093 188.46 246.68C189.007 246.267 189.28 245.673 189.28 244.9C189.28 244.1 189.02 243.5 188.5 243.1C187.993 242.7 187.347 242.5 186.56 242.5C185.72 242.5 185.047 242.713 184.54 243.14C184.033 243.553 183.78 244.167 183.78 244.98V245.16H182V244.8C182 244.053 182.193 243.4 182.58 242.84C182.967 242.267 183.5 241.827 184.18 241.52C184.873 241.2 185.66 241.04 186.54 241.04C187.927 241.04 189.033 241.367 189.86 242.02C190.687 242.673 191.1 243.6 191.1 244.8C191.1 245.56 190.9 246.187 190.5 246.68C190.1 247.16 189.54 247.56 188.82 247.88V247.96C189.607 248.187 190.233 248.587 190.7 249.16C191.167 249.733 191.4 250.453 191.4 251.32C191.4 252.12 191.193 252.82 190.78 253.42C190.38 254.007 189.82 254.46 189.1 254.78C188.38 255.087 187.553 255.24 186.62 255.24ZM194.993 255C194.993 251.293 196.66 247.28 199.993 242.96H192.853V241.28H202.573V242.34C201.027 244.113 199.7 246.02 198.593 248.06C197.487 250.1 196.933 252.073 196.933 253.98C196.933 254.34 196.94 254.68 196.953 255H194.993ZM205.027 244.48H207.027V246.64H205.027V244.48ZM205.027 252.84H207.027V255H205.027V252.84ZM215.673 251.62H209.293V250.14C210.16 248.66 210.9 247.18 211.513 245.7C212.126 244.22 212.613 242.667 212.973 241.04H214.873C214.62 242.173 214.246 243.373 213.753 244.64C213.26 245.893 212.753 247.027 212.233 248.04C211.726 249.053 211.32 249.76 211.013 250.16H215.673V245.66C215.953 244.94 216.226 244.08 216.493 243.08H217.433V250.16H219.253V251.62H217.433V255H215.673V251.62ZM225.706 255.24C224.04 255.24 222.78 254.733 221.926 253.72C221.086 252.693 220.666 250.967 220.666 248.54C220.666 246.7 220.853 245.233 221.226 244.14C221.6 243.033 222.146 242.24 222.866 241.76C223.6 241.28 224.526 241.04 225.646 241.04C227.046 241.04 228.086 241.433 228.766 242.22C229.46 242.993 229.806 244.02 229.806 245.3H228.006C228.006 244.393 227.8 243.7 227.386 243.22C226.973 242.74 226.36 242.5 225.546 242.5C224.4 242.5 223.606 242.933 223.166 243.8C222.726 244.653 222.493 245.947 222.466 247.68C222.866 247.2 223.36 246.833 223.946 246.58C224.546 246.313 225.2 246.18 225.906 246.18C227.32 246.18 228.4 246.607 229.146 247.46C229.893 248.3 230.266 249.387 230.266 250.72C230.266 251.627 230.066 252.427 229.666 253.12C229.28 253.8 228.74 254.327 228.046 254.7C227.353 255.06 226.573 255.24 225.706 255.24ZM225.566 253.78C226.513 253.78 227.226 253.487 227.706 252.9C228.2 252.313 228.446 251.56 228.446 250.64C228.446 249.747 228.2 249.02 227.706 248.46C227.226 247.9 226.513 247.62 225.566 247.62C224.62 247.62 223.9 247.913 223.406 248.5C222.913 249.073 222.666 249.813 222.666 250.72C222.666 251.613 222.913 252.347 223.406 252.92C223.9 253.493 224.62 253.78 225.566 253.78Z" fill="#F0F0F0"/>
</svg>
